<svg xmlns="http://www.w3.org/2000/svg" viewBox="0 0 64 64" fill="none">
  <circle cx="32" cy="32" r="30" fill="#1B512D"/>
  <path d="M14 34 C14 46 22 52 32 52 C42 52 50 46 50 34" stroke="#ADC178" stroke-width="3.5" stroke-linecap="round" fill="none"/>
  <path d="M32 32 C32 22 38 14 46 13 C42 18 36 26 32 32Z" fill="#ADC178"/>
  <path d="M32 32 C34 25 37 19 43 15" stroke="#1B512D" stroke-width="1.5" stroke-linecap="round" fill="none"/>
  <path d="M30 30 C28 22 22 17 16 17 C19 22 24 27 30 30Z" fill="#ADC178" opacity="0.7"/>
  <path d="M30 30 C27 25 23 21 18 18.5" stroke="#1B512D" stroke-width="1.2" stroke-linecap="round" fill="none"/>
</svg>